<?xml version="1.0" encoding="UTF-8"?>
<svg width="246px" height="91px" viewBox="0 0 246 91" version="1.1" xmlns="http://www.w3.org/2000/svg" xmlns:xlink="http://www.w3.org/1999/xlink">
    <!-- Generator: Sketch 51.2 (57519) - http://www.bohemiancoding.com/sketch -->
    <title>logo</title>
    <desc>Created with Sketch.</desc>
    <defs></defs>
    <g id="Page-1" stroke="none" stroke-width="1" fill="none" fill-rule="evenodd">
        <g id="Tablet" transform="translate(-261.000000, -102.000000)" fill="#1A4A40">
            <g id="logo" transform="translate(261.000000, 102.000000)">
                <path d="M0.952,90 L0.952,1.712 L19.924,1.712 C23.3960174,1.712 26.4546534,2.16666212 29.1,3.076 C31.7453466,3.98533788 34.1426559,5.59732176 36.292,7.912 C38.4413441,10.2266782 39.9293292,12.9339845 40.756,16.034 C41.5826708,19.1340155 41.996,23.3293069 41.996,28.62 C41.996,32.5880198 41.7686689,35.9359864 41.314,38.664 C40.8593311,41.3920136 39.8880074,43.9546547 38.4,46.352 C36.6639913,49.2453478 34.3493478,51.4979919 31.456,53.11 C28.5626522,54.7220081 24.7600236,55.528 20.048,55.528 L13.6,55.528 L13.6,90 L0.952,90 Z M13.6,13.616 L13.6,43.624 L19.676,43.624 C22.2386795,43.624 24.2226596,43.2520037 25.628,42.508 C27.0333404,41.7639963 28.0666634,40.7306733 28.728,39.408 C29.3893366,38.1679938 29.7819994,36.6386758 29.906,34.82 C30.0300006,33.0013242 30.092,30.9760112 30.092,28.744 C30.092,26.677323 30.0506671,24.7140093 29.968,22.854 C29.8853329,20.9939907 29.5133366,19.3613404 28.852,17.956 C28.1906634,16.5506596 27.1986733,15.4760037 25.876,14.732 C24.5533267,13.9879963 22.6520124,13.616 20.172,13.616 L13.6,13.616 Z M70.376,59.124 L64.176,27.132 L63.928,27.132 L57.728,59.124 L70.376,59.124 Z M39.128,90 L58.844,1.712 L69.384,1.712 L89.1,90 L76.452,90 L72.732,71.028 L55.496,71.028 L51.776,90 L39.128,90 Z M85.736,23.536 L85.736,1.712 L98.384,1.712 L98.384,14.36 L85.736,23.536 Z M147.72,64.828 L147.72,70.284 C147.72,73.0120136 147.203339,75.5953211 146.17,78.034 C145.136662,80.4726789 143.710676,82.6426572 141.892,84.544 C140.073324,86.4453428 137.944679,87.9539944 135.506,89.07 C133.067321,90.1860056 130.442681,90.744 127.632,90.744 C125.234655,90.744 122.796012,90.4133366 120.316,89.752 C117.835988,89.0906634 115.60401,87.9333416 113.62,86.28 C111.63599,84.6266584 110.00334,82.498013 108.722,79.894 C107.44066,77.289987 106.8,73.9626869 106.8,69.912 L106.8,21.304 C106.8,18.4106522 107.295995,15.7240124 108.288,13.244 C109.280005,10.7639876 110.685324,8.61467576 112.504,6.796 C114.322676,4.97732424 116.492654,3.5513385 119.014,2.518 C121.535346,1.4846615 124.325318,0.968 127.384,0.968 C133.33603,0.968 138.171981,2.91064724 141.892,6.796 C143.710676,8.69734284 145.136662,10.949987 146.17,13.554 C147.203339,16.158013 147.72,18.989318 147.72,22.048 L147.72,27.008 L135.072,27.008 L135.072,22.792 C135.072,20.3119876 134.36934,18.1626758 132.964,16.344 C131.55866,14.5253242 129.657345,13.616 127.26,13.616 C124.118651,13.616 122.031339,14.5873236 120.998,16.53 C119.964662,18.4726764 119.448,20.9319851 119.448,23.908 L119.448,69.044 C119.448,71.6066795 120.005994,73.7559913 121.122,75.492 C122.238006,77.2280087 124.242652,78.096 127.136,78.096 C127.962671,78.096 128.851329,77.9513348 129.802,77.662 C130.752671,77.3726652 131.641329,76.8973366 132.468,76.236 C133.212004,75.5746634 133.831998,74.6653391 134.328,73.508 C134.824002,72.3506609 135.072,70.9040087 135.072,69.168 L135.072,64.828 L147.72,64.828 Z M156.012,90 L156.012,1.712 L193.708,1.712 L193.708,13.616 L168.66,13.616 L168.66,39.532 L190.484,39.532 L190.484,51.436 L168.66,51.436 L168.66,77.352 L193.708,77.352 L193.708,90 L156.012,90 Z M212.54,13.616 L212.54,41.144 L219.732,41.144 C221.964011,41.144 223.741327,40.8340031 225.064,40.214 C226.386673,39.5939969 227.419996,38.7053391 228.164,37.548 C228.825337,36.3906609 229.279999,34.9646751 229.528,33.27 C229.776001,31.5753249 229.9,29.6120112 229.9,27.38 C229.9,25.1479888 229.776001,23.1846751 229.528,21.49 C229.279999,19.7953249 228.784004,18.3280062 228.04,17.088 C226.469325,14.7733218 223.493355,13.616 219.112,13.616 L212.54,13.616 Z M199.892,90 L199.892,1.712 L220.228,1.712 C235.108074,1.712 242.548,10.3505803 242.548,27.628 C242.548,32.836026 241.742008,37.2586485 240.13,40.896 C238.517992,44.5333515 235.686687,47.4679888 231.636,49.7 L245.276,90 L231.884,90 L220.104,52.304 L212.54,52.304 L212.54,90 L199.892,90 Z" id="PA’CER-Copy"></path>
            </g>
        </g>
    </g>
</svg>